<svg width="100" height="100" viewBox="0 0 100 100" fill="none" xmlns="http://www.w3.org/2000/svg">
<g clip-path="url(#clip0_98_92)">
<rect width="100" height="100" fill="url(#paint0_linear_98_92)"/>
<path d="M27.3125 57.125C28.2708 53.5 32.25 43.05 40.5 30.25H61.5L63 37.1875L72.0625 48.1875L73.6875 77.75L66.6875 84.625L30.875 82.5L27.3125 57.125Z" fill="#FFD3EF"/>
<path d="M65.1809 32.9039V22H34.9441V32.9039C31.4583 35.1416 28.6008 38.1747 26.6259 41.7334C24.6511 45.2921 23.6203 49.2659 23.6251 53.3012V80.2179C23.6199 81.1756 23.8118 82.1248 24.1899 83.0106C24.5679 83.8963 25.1245 84.7011 25.8275 85.3783C26.5305 86.0555 27.3659 86.5917 28.2854 86.9559C29.2048 87.32 30.1902 87.505 31.1843 87.4999H68.9407C69.9349 87.505 70.9202 87.32 71.8397 86.9559C72.7592 86.5917 73.5946 86.0555 74.2976 85.3783C75.0006 84.7011 75.5572 83.8963 75.9352 83.0106C76.3132 82.1248 76.5052 81.1756 76.4999 80.2179V53.3012C76.5048 49.2659 75.4739 45.2921 73.4991 41.7334C71.5243 38.1747 68.6668 35.1416 65.1809 32.9039Z" stroke="white" stroke-width="6.30265" stroke-miterlimit="10"/>
<path d="M62.6481 37.3125V27.875H37.4376V37.3125C34.5311 39.2492 32.1486 41.8744 30.5021 44.9544C28.8555 48.0345 27.996 51.4739 28.0001 54.9665V78.2632C27.9957 79.0921 28.1557 79.9136 28.4709 80.6803C28.7861 81.4469 29.2502 82.1434 29.8363 82.7296C30.4225 83.3157 31.119 83.7798 31.8856 84.095C32.6523 84.4102 33.4738 84.5702 34.3027 84.5658H65.783C66.6119 84.5702 67.4334 84.4102 68.2 84.095C68.9667 83.7798 69.6632 83.3157 70.2494 82.7296C70.8355 82.1434 71.2996 81.4469 71.6148 80.6803C71.9299 79.9136 72.09 79.0921 72.0856 78.2632V54.9665C72.0897 51.4739 71.2302 48.0345 69.5836 44.9544C67.9371 41.8744 65.5546 39.2492 62.6481 37.3125Z" stroke="#FFACD1" stroke-width="6.30265" stroke-miterlimit="10"/>
<path d="M62.625 14.375H37.375V27.875H62.625V14.375Z" stroke="white" stroke-width="6.30265" stroke-miterlimit="10"/>
<path d="M59.25 17.625H40.75V29.875H59.25V17.625Z" stroke="#FFACD1" stroke-width="6.30265" stroke-miterlimit="10"/>
<path d="M65.75 27.8751L34.25 27.875" stroke="#FFACD1" stroke-width="6.30265" stroke-miterlimit="10"/>
<path d="M42.059 69.1355C41.6936 69.1355 41.3897 69.3529 41.191 69.6485L37.2108 75.57C37.0106 75.8634 36.9932 76.2345 37.0731 76.5219C37.1468 76.7869 37.366 77.1543 37.7879 77.1543H57.9345C58.3 77.1543 58.6038 76.9369 58.8025 76.6413L62.7818 70.7212C62.7821 70.7208 62.7824 70.7204 62.7827 70.72C62.983 70.4266 63.0004 70.0554 62.9205 69.7679C62.8468 69.5029 62.6276 69.1355 62.2057 69.1355H42.059Z" fill="#A2E5F4" stroke="white" stroke-width="0.692961"/>
<path d="M42.059 47.0285C41.6936 47.0285 41.3897 47.2459 41.191 47.5415L37.2109 53.4557C37.0106 53.7491 36.9932 54.1203 37.0731 54.4077C37.1468 54.6727 37.366 55.0401 37.7879 55.0401H57.9345C58.2999 55.0401 58.6037 54.8228 58.8024 54.5273C58.8025 54.5272 58.8025 54.5272 58.8025 54.5272C58.8025 54.5272 58.8025 54.5271 58.8025 54.5271L62.7818 48.6142C62.7821 48.6139 62.7824 48.6135 62.7826 48.6131C62.983 48.3196 63.0004 47.9484 62.9205 47.6609C62.8468 47.3959 62.6276 47.0285 62.2057 47.0285H42.059Z" fill="#A2E5F4" stroke="white" stroke-width="0.692961"/>
<path d="M58.8025 58.5231C58.6038 58.2275 58.3 58.0101 57.9345 58.0101M58.8025 58.5231L58.515 58.7164L58.8024 58.5229L58.8025 58.5231ZM58.8025 58.5231L62.7818 64.436L62.496 64.6317L57.9345 58.0101M57.9345 58.0101H37.7879C37.366 58.0101 37.1468 58.3775 37.0731 58.6425C36.9932 58.9299 37.0106 59.3011 37.2109 59.5945L41.191 65.5087C41.3897 65.8043 41.6936 66.0217 42.059 66.0217H62.2057C62.6276 66.0217 62.8468 65.6543 62.9205 65.3893C63.0004 65.1018 62.983 64.7305 62.7826 64.4371L57.9345 58.0101Z" fill="#A2E5F4" stroke="white" stroke-width="0.692961"/>
</g>
<defs>
<linearGradient id="paint0_linear_98_92" x1="96.2043" y1="1.15112e-06" x2="3.79564" y2="100" gradientUnits="userSpaceOnUse">
<stop offset="0.0417159" stop-color="#3B7B52"/>
<stop offset="1" stop-color="#48287A"/>
</linearGradient>
<clipPath id="clip0_98_92">
<rect width="100" height="100" rx="10" fill="white"/>
</clipPath>
</defs>
</svg>
