<?xml version="1.0" standalone="no"?>
<!DOCTYPE svg PUBLIC "-//W3C//DTD SVG 20010904//EN"
 "http://www.w3.org/TR/2001/REC-SVG-20010904/DTD/svg10.dtd">
<svg version="1.0" xmlns="http://www.w3.org/2000/svg"
 width="700.000000pt" height="700.000000pt" viewBox="0 0 700.000000 700.000000"
 preserveAspectRatio="xMidYMid meet">
<metadata>
Created by potrace 1.14, written by Peter Selinger 2001-2017
</metadata>
<g transform="translate(0.000000,700.000000) scale(0.100000,-0.100000)"
fill="#000000" stroke="none">
<path d="M2199 6703 c0 -27 0 -167 0 -313 l0 -265 -95 1 c-52 0 -97 -3 -100
-8 -3 -4 -5 -233 -5 -507 l0 -498 -67 -54 c-116 -92 -202 -175 -308 -294 -64
-73 -204 -257 -204 -269 0 -3 -16 -31 -37 -63 -84 -131 -226 -476 -248 -600
-3 -18 -12 -61 -19 -95 -8 -35 -17 -83 -20 -108 -3 -25 -9 -70 -13 -100 -5
-30 -8 -617 -8 -1305 l0 -1250 23 -83 c43 -159 117 -285 230 -394 89 -85 129
-113 232 -164 95 -46 163 -66 272 -81 29 -4 784 -7 1678 -7 1303 0 1638 2
1690 13 36 7 72 14 81 16 29 6 152 57 199 83 138 77 279 222 348 357 30 60 70
183 81 250 10 63 9 2553 -1 2590 -6 20 -13 61 -24 140 -9 66 -52 227 -87 332
-139 407 -418 789 -769 1056 l-37 29 0 421 c0 232 0 461 -1 508 l0 86 -82 0
c-46 0 -93 1 -105 2 l-21 1 0 288 c0 158 -1 297 -1 310 l-1 22 -1290 0 -1290
0 -1 -47z"/>
</g>
</svg>
